<svg width="20" height="18" viewBox="0 0 20 18" fill="none" xmlns="http://www.w3.org/2000/svg">
<path d="M10 18C9.7 18 9.4 17.9 9.1 17.7L8.9 17.5C6.2 15.2 4.1 13.4 2.6 11.7C1.1 10 0 8.5 0 6.8C0 5.1 0.6 3.5 1.8 2.3C3 1.1 4.5 0.5 6.1 0.5C7.2 0.5 8.2 0.8 9.1 1.5C9.6 1.8 10 2.2 10.3 2.7L10 3L10.3 2.7C10.6 2.2 11 1.8 11.5 1.5C12.4 0.8 13.4 0.5 14.5 0.5C16.1 0.5 17.6 1.1 18.8 2.3C20 3.5 20.6 5.1 20.6 6.8C20.6 8.5 19.5 10 18 11.7C16.5 13.4 14.4 15.2 11.7 17.5L11.5 17.7C11.2 17.9 10.8 18 10.5 18H10Z" fill="#FF4D00"/>
</svg>
